<svg width="108" height="114" viewBox="0 0 108 114" fill="none" xmlns="http://www.w3.org/2000/svg">
<path d="M15.9278 65.0544C27.5585 82.9001 50.81 99.5791 76.713 94.9274C77.419 94.8036 77.8532 94.1181 77.8192 93.5204C77.3842 87.1541 73.3184 81.5347 69.5834 76.6466C65.1288 70.7993 60.1739 65.7885 53.5677 61.8739C47.4799 58.2631 41.1251 56.3068 33.4994 55.8968C29.6826 55.6837 25.8053 55.7773 21.9403 55.9441C20.2159 56.0259 18.4727 56.1168 16.7373 56.2237C15.5198 56.2979 14.0873 56.1195 12.9401 56.6747C12.2631 57.0023 12.037 57.6862 12.2558 58.2341C13.1642 60.6867 14.7451 62.7543 15.9278 65.0544C16.5869 66.3202 18.9454 65.1986 18.2786 63.9167C17.0958 61.6167 15.5149 59.549 14.5954 57.1216C14.3636 57.6498 14.1318 58.1779 13.9111 58.681C14.6821 58.3078 16.8718 58.516 17.8435 58.4617C19.4694 58.3681 21.1031 58.2907 22.7179 58.2223C26.2011 58.0818 29.6965 58.0145 33.1347 58.2127C40.4804 58.6196 46.5098 60.5749 52.3617 64.0819C58.4728 67.7409 63.0222 72.3933 67.1873 77.7864C70.8213 82.4658 74.8626 87.9387 75.2874 94.092C75.6598 93.6146 76.0212 93.1624 76.3936 92.685C63.9197 94.9184 52.0188 91.5258 42.2108 86.0309C32.437 80.5589 24.1305 72.8912 18.2708 63.9007C17.4957 62.7306 15.1372 63.8522 15.9278 65.0544Z" fill="#DDDDDD"/>
<path d="M15.4067 59.8988C27.0884 64.2295 37.9991 69.8445 48.3616 76.1013C52.8223 78.7959 57.4277 81.262 61.9889 83.8287C66.7484 86.5173 71.5525 89.4419 74.7311 93.7078C75.5893 94.8575 77.6084 93.2266 76.7503 92.0769C73.6759 87.9784 69.1175 85.034 64.5518 82.41C59.6925 79.6112 54.7184 77.0066 49.9298 74.1141C39.3768 67.7515 28.2879 62.1038 16.4047 57.6924C14.9374 57.1545 13.9738 59.3839 15.4067 59.8988Z" fill="#DDDDDD"/>
<path d="M69.0823 90.6166C56.4889 86.6083 43.5226 82.7409 33.2162 75.209C32.0285 74.3377 30.4869 76.3318 31.6745 77.2031C42.1261 84.843 55.3127 88.7821 68.0921 92.8391C69.5737 93.3106 70.545 91.0973 69.0823 90.6166Z" fill="#DDDDDD"/>
<path d="M59.1139 73.5711C53.3041 69.1919 46.4281 66.3984 39.4172 63.7098C37.9876 63.1537 37.024 65.3831 38.4459 65.9231C45.2896 68.554 51.9342 71.301 57.5911 75.5562C58.7489 76.4618 60.2828 74.4516 59.1139 73.5711Z" fill="#DDDDDD"/>
<path d="M32.5304 70.5876C30.0476 68.7186 27.8412 66.5575 25.1417 64.9122C24.6078 64.5764 23.7669 64.805 23.3535 65.3418C22.9214 65.8877 23.0551 66.5956 23.6078 66.9224C26.3073 68.5676 28.5137 70.7288 30.9965 72.5977C31.5006 72.9679 32.4012 72.6707 32.7847 72.1681C33.2201 71.581 33.0157 70.9668 32.5304 70.5876Z" fill="#DDDDDD"/>
<path d="M12.2986 36.6994C32.351 46.8641 62.6746 51.107 84.9692 36.5536C85.6074 36.1457 85.5068 35.3623 85.1986 34.9172C81.5351 29.6974 74.6709 26.6406 68.6077 24.0877C61.9054 21.2695 55.224 19.2138 47.5614 18.5838C39.8723 17.9469 32.7494 18.7198 25.1441 21.4693C21.2341 22.8862 17.4341 24.6261 13.673 26.4464C11.9993 27.2564 10.3145 28.0915 8.64857 28.9176C7.47157 29.507 6.01657 29.9537 5.16991 30.9379C4.84163 31.3147 4.79379 32.0311 5.17605 32.3414C7.32442 34.0948 9.93026 35.2109 12.2986 36.6994C13.5647 37.4932 15.1064 35.4991 13.8402 34.7053C11.6624 33.3227 9.17515 32.3077 7.1764 30.7196C7.17477 31.1958 7.18418 31.6469 7.18255 32.1231C7.71974 31.5066 10.0897 30.6964 11.0112 30.2504C12.5831 29.4699 14.155 28.6893 15.7424 27.9409C19.1353 26.3187 22.5669 24.7768 26.104 23.5008C33.3741 20.8738 40.2726 20.3086 47.5909 20.9467C54.8904 21.5939 61.273 23.6556 67.6486 26.3743C73.3508 28.8048 79.7322 31.6792 83.1683 36.5733C83.2485 36.0195 83.3176 35.4908 83.3977 34.9369C72.6706 41.931 59.6529 43.9522 47.5906 43.3913C35.5737 42.8282 23.8781 39.8117 13.848 34.7214C12.4923 34.0304 10.9507 36.0245 12.2986 36.6994Z" fill="#DDDDDD"/>
<path d="M8.89974 32.6012C22.5593 31.3788 36.0778 31.5916 49.4324 32.6166C54.9319 33.0454 60.4841 33.1515 66.0045 33.4316C71.5514 33.7186 77.301 34.1848 82.1595 36.3105C83.5405 36.91 85.0899 34.9319 83.7012 34.3164C74.1592 30.1388 62.285 31.3093 51.6114 30.4527C37.669 29.316 23.5249 29.0098 9.24559 30.2944C7.6242 30.4452 7.27836 32.752 8.89974 32.6012Z" fill="#DDDDDD"/>
<path d="M75.4281 36.1613C61.5943 37.983 47.4201 40.1082 34.0001 38.0848C32.4457 37.8465 31.4556 40.0689 33.0287 40.2981C46.9038 42.3985 61.43 40.2812 75.7474 38.4037C77.3831 38.1866 77.045 35.9533 75.4281 36.1613Z" fill="#DDDDDD"/>
<path d="M57.7406 26.0395C50.0208 24.7637 42.1371 25.2115 34.1119 25.8465C32.4827 25.9812 32.1369 28.288 33.766 28.1533C41.5455 27.5381 49.262 27.0327 56.7692 28.2529C58.3314 28.5072 59.3027 26.2938 57.7406 26.0395Z" fill="#DDDDDD"/>
<path d="M31.0248 34.4887C27.6238 33.9357 24.3507 33.0237 20.8549 32.7544C20.2073 32.7112 19.4919 33.2952 19.4085 33.8902C19.3374 34.5585 19.8083 35.0041 20.4903 35.0703C21.3537 35.1279 21.998 35.2123 22.7752 35.3314C23.6055 35.4644 24.4248 35.6226 25.244 35.7808C26.8372 36.0993 28.4006 36.452 30.0158 36.7202C30.6491 36.8298 31.4291 36.5711 31.6707 35.9193C31.9324 35.3569 31.7112 34.6121 31.0248 34.4887Z" fill="#DDDDDD"/>
</svg>
