<svg width="107" height="105" viewBox="0 0 107 105" fill="none" xmlns="http://www.w3.org/2000/svg">
<path d="M76.6466 18.1939C68.4502 14.0779 57.7737 12.674 48.7875 14.4304C42.6014 15.6444 34.2175 19.32 34.7046 26.9434C35.1404 33.6214 42.4755 37.5134 48.362 38.3251C54.9753 39.2267 62.2521 38.416 68.4501 35.8787C71.5048 34.6297 74.5996 32.782 76.5037 29.9821C78.5086 27.0438 78.7252 23.6495 77.7466 20.2919C77.2168 18.4656 74.5087 19.6233 75.024 21.431C78.5063 33.4663 59.1699 36.0728 51.3232 35.6559C46.2758 35.384 39.9149 33.6583 37.9747 28.3036C35.7566 22.2102 43.5894 18.5168 48.2361 17.5485C57.1498 15.6992 67.4068 16.8334 75.5887 20.9307C77.2623 21.7749 78.3532 19.0421 76.6466 18.1939Z" fill="#DDDDDD"/>
<path d="M75.7143 20.3236C69.3018 22.9685 62.2702 23.558 55.4456 24.3744C53.5572 24.5937 53.9674 27.5288 55.8412 27.2909C62.9052 26.4371 70.1988 25.7626 76.8402 23.0286C78.5873 22.3223 77.4654 19.5843 75.7143 20.3236Z" fill="#DDDDDD"/>
<path d="M80.3616 41.2729C76.4513 45.2502 72.6609 49.3429 69.1104 53.6665C65.0492 58.5977 60.5803 64.1158 58.629 70.2974C57.9416 72.4763 57.552 74.9604 58.615 77.0874C59.7857 79.4291 62.3471 80.4166 64.8061 80.7374C68.6671 81.2484 72.8854 80.7638 76.3042 78.8723C80.2262 76.7076 83.1899 73.2002 85.2943 69.3183C89.7888 61.0028 91.1587 48.6451 83.3288 41.8243C81.9063 40.5751 80.1542 42.9578 81.5622 44.1884C87.6822 49.5065 86.5738 59.3307 83.6573 65.9967C82.048 69.6715 79.6105 73.1266 76.3081 75.4349C73.3354 77.5157 69.7697 78.1481 66.1921 77.9238C65.0277 77.8469 63.8055 77.6957 62.7456 77.179C62.0803 76.8619 61.5241 76.3404 61.2941 75.8927C60.5462 74.4754 60.9472 72.5797 61.5406 70.8922C63.4396 65.4085 67.3235 60.5559 70.9232 56.1043C73.0568 53.4837 75.2813 50.9414 77.5493 48.4548C78.4392 47.4916 79.3291 46.5284 80.252 45.5692C80.6538 45.1661 81.0225 44.7589 81.4242 44.3558C81.7703 43.9961 82.0382 43.7274 82.1721 43.593C83.4782 42.2452 81.6863 39.9107 80.3616 41.2729Z" fill="#DDDDDD"/>
<path d="M81.3519 43.7294C79.3096 49.8326 76.0897 55.4213 73.3346 61.1849C72.5204 62.8953 75.2534 63.9879 76.0676 62.2774C78.8227 56.5139 82.0426 50.9252 84.0849 44.8219C84.6905 43.0354 81.943 41.9242 81.3519 43.7294Z" fill="#DDDDDD"/>
<path d="M49.1156 48.2764C41.3997 48.295 32.8689 48.5314 26.0068 52.5126C21.817 54.946 17.3637 58.8394 15.713 63.532C15.0129 65.5417 14.9427 67.7466 16.1599 69.5741C17.5613 71.6759 20.102 72.5603 22.456 73.0526C28.6056 74.3161 34.8171 71.2606 39.4026 67.3836C44.4187 63.1406 48.7816 57.2572 50.27 50.7501C50.6814 48.906 47.7558 48.561 47.3629 50.3907C46.2924 55.1383 43.1858 59.5336 39.8442 62.9774C36.2162 66.7045 31.4542 69.9728 26.1231 70.3701C22.7714 70.6264 17.0224 69.3789 18.3618 64.8993C19.5145 60.9835 23.3023 57.729 26.603 55.5713C32.9632 51.4442 41.4094 51.2141 48.7392 51.1981C50.6176 51.1956 50.994 48.2739 49.1156 48.2764Z" fill="#DDDDDD"/>
<path d="M46.6278 49.6833C42.287 53.0707 37.6212 55.9651 33.2805 59.3525C31.7965 60.5106 33.5885 62.8452 35.091 61.6726C39.4318 58.2852 44.0975 55.3908 48.4383 52.0034C49.9409 50.8308 48.1303 48.5107 46.6278 49.6833Z" fill="#DDDDDD"/>
</svg>
